<?xml version="1.0" ?><!DOCTYPE svg  PUBLIC '-//W3C//DTD SVG 1.1//EN'  'http://www.w3.org/Graphics/SVG/1.1/DTD/svg11.dtd'><svg enable-background="new 0 0 500 500" height="500px" id="Layer_1" version="1.1" viewBox="0 0 500 500" width="500px" xml:space="preserve" xmlns="http://www.w3.org/2000/svg" xmlns:xlink="http://www.w3.org/1999/xlink"><path clip-rule="evenodd" d="M31.949,250c0,120.473,97.58,218.051,218.051,218.051  c120.473,0,218.051-97.578,218.051-218.051c0-120.471-97.578-218.051-218.051-218.051C129.529,31.949,31.949,129.529,31.949,250z   M77.375,250c0-13.992,1.638-27.62,4.814-40.61L122.802,250l-9.084,54.513l36.342,36.34v49.883  C106.088,359.48,77.375,308.063,77.375,250z M210.295,82.007c12.72-3.087,25.988-4.631,39.705-4.631c15.173,0,29.891,2,43.883,5.634  l-7.542,12.539l9.086,9.084h27.258l7.543-7.541c6.35,3.362,12.35,6.996,18.169,11.084l-16.625,5.542l-18.173,18.17l18.173,9.086  v9.086h-18.173v18.17c0,0,12.536,9.086,27.254,9.086c14.448,0,7.998-19.897,18.174-27.256c10.267-7.361,22.715-5.724,22.715-5.724  l5.906,1.544c11.085,14.626,19.892,30.984,25.891,48.697v0.909c0,0-12.812-9.086-36.34-9.086c-23.53,0-45.427,9.086-45.427,9.086  s-25.627,7.453-27.259,27.257c-2.82,34.069,9.086,45.428,9.086,45.428l45.428,27.255v88.408  C329.322,408.09,291.339,422.624,250,422.624c-19.532,0-38.249-3.174-55.785-9.174l46.699-108.938l-9.084-45.427  c0,0-36.071-45.428-54.513-45.428c-18.441,0-27.256,27.256-27.256,27.256l-18.172-36.34l54.512-36.343l27.257-72.683L210.295,82.007  z" fill="#010101" fill-rule="evenodd"/></svg>