<?xml version="1.0" encoding="iso-8859-1"?>
<!-- Generator: Adobe Illustrator 19.0.0, SVG Export Plug-In . SVG Version: 6.00 Build 0)  -->
<svg version="1.1" id="Layer_1" xmlns="http://www.w3.org/2000/svg" xmlns:xlink="http://www.w3.org/1999/xlink" x="0px" y="0px"
	 viewBox="0 0 512 512" style="enable-background:new 0 0 512 512;" xml:space="preserve">
<g>
	<g>
		<path d="M473.043,411.826H38.957c-18.442,0-33.391,14.949-33.391,33.391v50.087c0,9.22,7.475,16.696,16.696,16.696h467.478
			c9.22,0,16.696-7.475,16.696-16.696v-50.087C506.435,426.775,491.485,411.826,473.043,411.826z"/>
	</g>
</g>
<g>
	<g>
		<path d="M256.001,0H256C154.572,0,72.348,82.224,72.348,183.651v194.784h367.304V183.651C439.652,82.224,357.428,0,256.001,0z
			 M322.783,200.348h-50.087v83.478c0,9.22-7.475,16.696-16.696,16.696s-16.696-7.475-16.696-16.696v-83.478h-50.087
			c-9.22,0-16.696-7.475-16.696-16.696c0-9.22,7.475-16.696,16.696-16.696h50.087V116.87c0-9.22,7.475-16.696,16.696-16.696
			s16.696,7.475,16.696,16.696v50.087h50.087c9.22,0,16.696,7.475,16.696,16.696C339.478,192.873,332.003,200.348,322.783,200.348z"
			/>
	</g>
</g>
<g>
</g>
<g>
</g>
<g>
</g>
<g>
</g>
<g>
</g>
<g>
</g>
<g>
</g>
<g>
</g>
<g>
</g>
<g>
</g>
<g>
</g>
<g>
</g>
<g>
</g>
<g>
</g>
<g>
</g>
</svg>
