<?xml version="1.0" ?><svg data-name="Layer 1" id="Layer_1" viewBox="0 0 24 24" xmlns="http://www.w3.org/2000/svg"><title/><path d="M18,8H13V5H11V8H6a4,4,0,0,0-4,4v9H22V12A4,4,0,0,0,18,8Zm2,11H4V16a3.78,3.78,0,0,0,2.71-1.3,1.54,1.54,0,0,1,2.58,0,3.49,3.49,0,0,0,5.42,0,1.54,1.54,0,0,1,2.58,0A3.78,3.78,0,0,0,20,16Zm0-5a2,2,0,0,1-1.29-.7,3.49,3.49,0,0,0-5.42,0,1.54,1.54,0,0,1-2.58,0,3.49,3.49,0,0,0-5.42,0A2,2,0,0,1,4,14V12a2,2,0,0,1,2-2H18a2,2,0,0,1,2,2ZM12,4.19a1.55,1.55,0,0,0,1.55-1.55C13.55,1.4,12,0,12,0s-1.55,1.4-1.55,2.64A1.55,1.55,0,0,0,12,4.19Z"/></svg>