<svg width="512" height="512" xmlns="http://www.w3.org/2000/svg" xmlns:svg="http://www.w3.org/2000/svg">
 <g>
  <title>Layer 1</title>
  <g id="svg_3">
   <path fill="#787969" d="m427.20001,143.3c-0.5,-12.40001 -4.5,-15.3 -15.10001,-15.3c0,0 -121.39999,0 -143.19998,0c-21.8,0 -24.40001,0.3 -40.90001,-17.4c-13.70001,-14.8 -8.30002,-14.6 -36.60002,-14.6c-22.60002,0 -75.3,0 -75.3,0c-17.4,0 -23.6,-1.5 -25.2,16.6c-1.5,16.7 -5,57.2 -5.5,63.4l343.4,0l-1.59998,-32.7z" id="svg_4"/>
  </g>
  <g id="svg_11">
   <rect fill="#787969" height="139.587" transform="rotate(-15, 265.475, 209.855) matrix(-0.9894, 0.1455, -0.1455, -0.9894, 811.365, 215.454)" width="269.591" x="404.44846" y="15.16607" id="svg_8"/>
   <rect fill="#f5f5f1" height="88.354" transform="rotate(-15, 265.684, 207.914) matrix(-0.9894, 0.1455, -0.1455, -0.9894, 810.058, 197.642)" width="222.683" x="428.71236" y="24.86035" id="svg_9"/>
  </g>
  <path fill="#8a8c7a" d="m431.10001,192l-348.20002,0c-17.69999,0 -18.59998,9.2 -17.59998,20.5l13,183c0.89999,11.20001 3.5,20.5 21.09998,20.5l316.20002,0c18,0 20.10001,-9.20001 21.10001,-20.5l12.10001,-185.3c0.89999,-11.2 -0.00003,-18.2 -17.70001,-18.2z" id="svg_2"/>
  <g id="svg_22">
   <g id="svg_5">
    <path d="m219.90903,252.69232c0,-20.79243 16.07277,-36.69229 37.09091,-36.69229s37.09091,15.89986 37.09091,36.69229c0,20.79248 -16.07275,36.69232 -37.09091,36.69232s-37.09091,-15.89984 -37.09091,-36.69232zm37.09091,61.15387c-56.87279,0 -74.18181,40.36136 -74.18181,40.36136l0,20.79248l148.36363,0l0,-20.79248c0,0 -17.30902,-40.36136 -74.18182,-40.36136z" fill="#f5f5f1" id="svg_6"/>
   </g>
   <g id="svg_7">
    <g id="svg_8">
     <circle cx="337.36358" cy="246.57694" r="29.05403" fill="#f5f5f1" id="svg_9"/>
    </g>
    <g id="svg_10">
     <path d="m337.36359,301.61539c-14.83633,0 -25.96371,3.6691 -34.61823,9.78448c28.4364,13.45392 39.5636,36.69232 39.5636,39.13861l0,1.22311l50.69098,0l0,-15.90018c0,-1.22278 -13.60007,-34.24603 -55.63635,-34.24603z" fill="#f5f5f1" id="svg_11"/>
    </g>
   </g>
   <g id="svg_12">
    <g id="svg_13">
     <circle cx="337.36358" cy="246.57694" r="29.05403" fill="#f5f5f1" id="svg_14"/>
    </g>
    <g id="svg_15">
     <path d="m337.36359,301.61539c-14.83633,0 -25.96371,3.6691 -34.61823,9.78448c28.4364,13.45392 39.5636,36.69232 39.5636,39.13861l0,1.22311l50.69098,0l0,-15.90018c0,-1.22278 -13.60007,-34.24603 -55.63635,-34.24603z" fill="#f5f5f1" id="svg_16"/>
    </g>
   </g>
   <g id="svg_17">
    <g id="svg_18">
     <circle cx="176.63631" cy="246.57694" r="29.05402" fill="#f5f5f1" id="svg_19"/>
    </g>
    <g id="svg_20">
     <path d="m176.63631,301.61539c14.83633,0 25.96371,3.6691 34.61824,9.78448c-28.43642,13.45392 -39.56361,36.69232 -39.56361,39.13861l0,1.22311l-50.69097,0l0,-15.90018c0,-1.22278 13.60007,-34.24603 55.63634,-34.24603z" fill="#f5f5f1" id="svg_21"/>
    </g>
   </g>
  </g>
 </g>
</svg>