<svg width="512" height="512" xmlns="http://www.w3.org/2000/svg" xmlns:svg="http://www.w3.org/2000/svg">
 <g>
  <title>Layer 1</title>
  <g id="svg_1">
   <path fill="#8a8c7a" d="m431.10001,192l-348.20002,0c-17.69999,0 -18.59998,9.2 -17.59998,20.5l13,183c0.89999,11.20001 3.5,20.5 21.09998,20.5l316.20002,0c18,0 20.10001,-9.20001 21.10001,-20.5l12.10001,-185.3c0.89999,-11.2 -0.00003,-18.2 -17.70001,-18.2z" id="svg_2"/>
   <g id="svg_3">
    <path fill="#787969" d="m427.20001,143.3c-0.5,-12.40001 -4.5,-15.3 -15.10001,-15.3c0,0 -121.39999,0 -143.19998,0c-21.8,0 -24.40001,0.3 -40.90001,-17.4c-13.70001,-14.8 -8.30002,-14.6 -36.60002,-14.6c-22.60001,0 -75.3,0 -75.3,0c-17.4,0 -23.6,-1.5 -25.2,16.6c-1.5,16.7 -5,57.2 -5.5,63.4l343.4,0l-1.59998,-32.7z" id="svg_4"/>
   </g>
  </g>
  <path id="svg 5" d="m203.32666,253.7332c0,-20.37177 24.55635,-36.87289 54.8728,-36.87289c30.31653,0 54.87283,16.50113 54.87283,36.87289c0,20.37178 -24.5563,36.87294 -54.87283,36.87294c-30.31645,0 -54.8728,-16.50116 -54.8728,-36.87294z" stroke-linecap="null" stroke-linejoin="null" stroke-dasharray="null" stroke-width="null" fill="#f5f5f1"/>
  <path id="svg_6" fill="#f5f5f1" d="m258.2334,306.53336c-69.20941,0 -90.76643,46.39999 -90.76643,46.39999l0,23.19998l181.53279,0l0,-23.19998c0,0 -21.55695,-46.39999 -90.76636,-46.39999z"/>
 </g>
</svg>