<svg width="512" height="512" xmlns="http://www.w3.org/2000/svg" xmlns:svg="http://www.w3.org/2000/svg">
 <g>
  <title>Layer 1</title>
  <g id="svg_1">
   <path id="svg_2" d="m431.10001,192l-348.20002,0c-17.69999,0 -18.59998,9.2 -17.59998,20.5l13,183c0.89999,11.20001 3.5,20.5 21.09998,20.5l316.20002,0c18,0 20.10001,-9.20001 21.10001,-20.5l12.10001,-185.3c0.89999,-11.2 -0.00003,-18.2 -17.70001,-18.2z" fill="#8a8c7a"/>
   <g id="svg_3">
    <path id="svg_4" d="m427.20001,143.3c-0.5,-12.40001 -4.5,-15.3 -15.10001,-15.3c0,0 -121.39999,0 -143.19998,0c-21.8,0 -24.40001,0.3 -40.90001,-17.4c-13.70001,-14.8 -8.30002,-14.6 -36.60002,-14.6c-22.60002,0 -75.3,0 -75.3,0c-17.4,0 -23.6,-1.5 -25.2,16.6c-1.5,16.7 -5,57.2 -5.5,63.4l343.4,0l-1.59998,-32.7z" fill="#787969"/>
   </g>
  </g>
  <g id="svg_22">
   <g id="svg_5">
    <path id="svg_6" fill="#f5f5f1" d="m219.90903,252.69232c0,-20.79243 16.07277,-36.69229 37.09091,-36.69229s37.09091,15.89986 37.09091,36.69229c0,20.79248 -16.07275,36.69232 -37.09091,36.69232s-37.09091,-15.89984 -37.09091,-36.69232zm37.09091,61.15387c-56.87279,0 -74.18181,40.36136 -74.18181,40.36136l0,20.79248l148.36363,0l0,-20.79248c0,0 -17.30902,-40.36136 -74.18182,-40.36136z"/>
   </g>
   <g id="svg_7">
    <g id="svg_8">
     <circle id="svg_9" fill="#f5f5f1" r="29.05403" cy="246.57694" cx="337.36358"/>
    </g>
    <g id="svg_10">
     <path id="svg_11" fill="#f5f5f1" d="m337.36359,301.61539c-14.83633,0 -25.96371,3.6691 -34.61823,9.78448c28.4364,13.45392 39.5636,36.69232 39.5636,39.13861l0,1.22311l50.69098,0l0,-15.90018c0,-1.22278 -13.60007,-34.24603 -55.63635,-34.24603z"/>
    </g>
   </g>
   <g id="svg_12">
    <g id="svg_13">
     <circle id="svg_14" fill="#f5f5f1" r="29.05403" cy="246.57694" cx="337.36358"/>
    </g>
    <g id="svg_15">
     <path id="svg_16" fill="#f5f5f1" d="m337.36359,301.61539c-14.83633,0 -25.96371,3.6691 -34.61823,9.78448c28.4364,13.45392 39.5636,36.69232 39.5636,39.13861l0,1.22311l50.69098,0l0,-15.90018c0,-1.22278 -13.60007,-34.24603 -55.63635,-34.24603z"/>
    </g>
   </g>
   <g id="svg_17">
    <g id="svg_18">
     <circle id="svg_19" fill="#f5f5f1" r="29.05402" cy="246.57694" cx="176.63631"/>
    </g>
    <g id="svg_20">
     <path id="svg_21" fill="#f5f5f1" d="m176.63631,301.61539c14.83633,0 25.96371,3.6691 34.61824,9.78448c-28.43642,13.45392 -39.56361,36.69232 -39.56361,39.13861l0,1.22311l-50.69098,0l0,-15.90018c0,-1.22278 13.60008,-34.24603 55.63635,-34.24603z"/>
    </g>
   </g>
  </g>
 </g>
</svg>