<?xml version="1.0" ?><!DOCTYPE svg  PUBLIC '-//W3C//DTD SVG 1.1//EN'  'http://www.w3.org/Graphics/SVG/1.1/DTD/svg11.dtd'>
<svg width="512" height="512" xmlns="http://www.w3.org/2000/svg" xmlns:svg="http://www.w3.org/2000/svg">
 <g>
  <g id="svg_1">
   <path id="svg_2" d="m430.100006,192l-348.200005,0c-17.700005,0 -18.600002,9.199997 -17.599998,20.5l13,183c0.899994,11.200012 3.5,20.5 21.099998,20.5l316.200005,0c18,0 20.100006,-9.200012 21.100006,-20.5l12.100006,-185.300003c0.899994,-11.199997 -0.000031,-18.199997 -17.700012,-18.199997z" fill="#8a8c7a"/>
   <g id="svg_3">
    <path id="svg_4" d="m426.200012,143.300003c-0.5,-12.400009 -4.5,-15.300003 -15.100006,-15.300003c0,0 -121.399994,0 -143.199982,0c-21.800003,0 -24.400009,0.300003 -40.900009,-17.400002c-13.700012,-14.799995 -8.300018,-14.599998 -36.600021,-14.599998c-22.600006,0 -75.300003,0 -75.300003,0c-17.400002,0 -23.599998,-1.5 -25.200005,16.599998c-1.5,16.700005 -5,57.200005 -5.5,63.400002l343.400002,0l-1.599976,-32.699997z" fill="#787969"/>
   </g>
  </g>
  <path id="svg_5" d="m379,271.997772l-92.969208,0l-28.530792,-68.098663l-28.530807,68.098663l-92.969193,0l76.045975,41.903564l-29.615616,68.098663l75.069641,-42.203186l75.069641,42.203186l-29.669891,-68.098663l76.10025,-41.903564z" fill="#f5f5f1"/>
 </g>
</svg>